name D:\school\WTK\thesis\model\3dpredictsim\Results\MidTarsalJoint\Fal_s1_bCst_PF_Natali2010_ls150_MT_nl_signed_lin_MTP_Mu5_ig24_300_10.mot
datacolumns 128
datarows 4
range 0.58152237 0.61641371
endheader
time	pelvis_tilt	pelvis_list	pelvis_rotation	pelvis_tx	pelvis_ty	pelvis_tz	hip_flexion_l	hip_adduction_l	hip_rotation_l	hip_flexion_r	hip_adduction_r	hip_rotation_r	knee_angle_l	knee_angle_r	ankle_angle_l	ankle_angle_r	subtalar_angle_l	subtalar_angle_r	tmt_angle_l	tmt_angle_r	mtp_angle_l	mtp_angle_r	lumbar_extension	lumbar_bending	lumbar_rotation	arm_flex_l	arm_add_l	arm_rot_l	arm_flex_r	arm_add_r	arm_rot_r	elbow_flex_l	elbow_flex_r	pro_sup_l	pro_sup_r	glut_med1_l/activation	glut_med2_l/activation	glut_med3_l/activation	glut_min1_l/activation	glut_min2_l/activation	glut_min3_l/activation	semimem_l/activation	semiten_l/activation	bifemlh_l/activation	bifemsh_l/activation	sar_l/activation	add_long_l/activation	add_brev_l/activation	add_mag1_l/activation	add_mag2_l/activation	add_mag3_l/activation	tfl_l/activation	pect_l/activation	grac_l/activation	glut_max1_l/activation	glut_max2_l/activation	glut_max3_l/activation	iliacus_l/activation	psoas_l/activation	quad_fem_l/activation	gem_l/activation	peri_l/activation	rect_fem_l/activation	vas_med_l/activation	vas_int_l/activation	vas_lat_l/activation	med_gas_l/activation	lat_gas_l/activation	soleus_l/activation	tib_post_l/activation	flex_dig_l/activation	flex_hal_l/activation	tib_ant_l/activation	per_brev_l/activation	per_long_l/activation	per_tert_l/activation	ext_dig_l/activation	ext_hal_l/activation	ercspn_l/activation	intobl_l/activation	extobl_l/activation	glut_med1_r/activation	glut_med2_r/activation	glut_med3_r/activation	glut_min1_r/activation	glut_min2_r/activation	glut_min3_r/activation	semimem_r/activation	semiten_r/activation	bifemlh_r/activation	bifemsh_r/activation	sar_r/activation	add_long_r/activation	add_brev_r/activation	add_mag1_r/activation	add_mag2_r/activation	add_mag3_r/activation	tfl_r/activation	pect_r/activation	grac_r/activation	glut_max1_r/activation	glut_max2_r/activation	glut_max3_r/activation	iliacus_r/activation	psoas_r/activation	quad_fem_r/activation	gem_r/activation	peri_r/activation	rect_fem_r/activation	vas_med_r/activation	vas_int_r/activation	vas_lat_r/activation	med_gas_r/activation	lat_gas_r/activation	soleus_r/activation	tib_post_r/activation	flex_dig_r/activation	flex_hal_r/activation	tib_ant_r/activation	per_brev_r/activation	per_long_r/activation	per_tert_r/activation	ext_dig_r/activation	ext_hal_r/activation	ercspn_r/activation	intobl_r/activation	extobl_r/activation	
          0.58152237	         -2.92986562	          2.19438116	         -5.69827802	          0.72690296	          0.91806712	          0.00288317	         28.72799292	          3.31891007	         -3.40332889	        -16.63936466	         -0.75744807	          6.35795603	         -7.69887885	         -8.28955526	          6.03203618	         -1.78982482	         -6.56305636	          6.07492212	         -3.14286255	          4.75611653	         11.78850092	         12.62010890	         -1.79391047	         -0.24082622	          2.22983325	         -5.35081206	        -13.45927836	          7.43541309	          5.15976153	        -13.45336980	         16.55983078	         16.07905976	         34.71880787	         86.51662706	         86.51662706	          0.05969196	          0.05969196	          0.05000035	          0.05969213	          0.05969208	          0.05002519	          0.22095313	          0.10008578	          0.14319049	          0.08722101	          0.05000036	          0.15712650	          0.21084416	          0.26253734	          0.21497136	          0.11347110	          0.05000023	          0.05000803	          0.15268468	          0.05000366	          0.07093353	          0.15401583	          0.05000087	          0.05000040	          0.18403522	          0.27232489	          0.12719468	          0.05000370	          0.07688040	          0.07474874	          0.07127136	          0.07223501	          0.07475137	          0.06264776	          0.05000011	          0.07126481	          0.06079331	          0.53745009	          0.30289336	          0.19554364	          0.27137252	          0.37420005	          0.10926471	          0.05881699	          0.12443644	          0.10156788	          0.27921160	          0.10161414	          0.07418528	          0.28562149	          0.19250611	          0.11865389	          0.05000297	          0.05000048	          0.05000026	          0.05237001	          0.11465814	          0.06697154	          0.05000147	          0.05000086	          0.05000171	          0.05000063	          0.32558969	          0.05969493	          0.05001243	          0.05000209	          0.05000116	          0.05000092	          0.43863427	          0.70038097	          0.05000022	          0.05000088	          0.06397268	          0.27228822	          0.05000027	          0.05000028	          0.05000026	          0.28040414	          0.39048231	          0.35737295	          0.29260917	          0.35853411	          0.43630917	          0.05000010	          0.05969155	          0.12820617	          0.05000070	          0.05000020	          0.05000073	          0.05000002	          0.05000006	          0.05000034	
          0.59315281	         -2.92938432	          2.28650229	         -6.00143703	          0.74448874	          0.91716816	          0.00270084	         28.12979986	          3.70121865	         -3.14705008	        -16.50020170	         -1.07233180	          6.13680211	         -8.31794013	        -10.27036254	          5.46070947	         -2.33652108	         -6.88589126	          7.02051439	         -3.26139278	          3.89937942	         11.68665458	         14.44009583	         -1.57267969	         -0.43251248	          2.30443032	         -6.32643987	        -13.45114479	          7.25849418	          4.85719058	        -13.46389754	         16.86659809	         15.72771885	         36.03539984	         86.51662706	         86.51662706	          0.05000004	          0.05000012	          0.08598206	          0.05000015	          0.05000016	          0.05000021	          0.18507784	          0.08383523	          0.11994110	          0.07305941	          0.07125477	          0.13161477	          0.31818083	          0.30676103	          0.19894680	          0.11288203	          0.05000076	          0.08191404	          0.15689601	          0.05000175	          0.10030507	          0.14684334	          0.05000084	          0.05975131	          0.54039250	          0.22810835	          0.10654267	          0.05969210	          0.06439771	          0.06261218	          0.05969939	          0.07126243	          0.07126283	          0.06165261	          0.05969199	          0.05969422	          0.06109996	          0.53965362	          0.31552247	          0.24004363	          0.22731085	          0.31344227	          0.09756672	          0.05000002	          0.10423203	          0.08507658	          0.23387690	          0.08511539	          0.06214011	          0.23924617	          0.16124953	          0.09938849	          0.05000675	          0.05000154	          0.05000293	          0.05000027	          0.09604169	          0.14432745	          0.05000508	          0.05969229	          0.05967804	          0.05969428	          0.27272489	          0.05000503	          0.05000237	          0.05009375	          0.05020619	          0.05968986	          0.36741448	          0.64442092	          0.05748905	          0.05968221	          0.05358610	          0.24819434	          0.11930853	          0.12132422	          0.08601148	          0.23487568	          0.32708082	          0.31300367	          0.25522331	          0.37365686	          0.45668904	          0.05000007	          0.05000049	          0.14993932	          0.05000026	          0.05000009	          0.05000037	          0.05476388	          0.07126276	          0.06663094	
          0.60478326	         -2.92455853	          2.38348492	         -6.27042453	          0.76239339	          0.91629798	          0.00253976	         27.42908310	          3.96802208	         -2.86248410	        -16.29305963	         -1.39163996	          5.90734323	         -9.02507515	        -12.34786595	          4.91663161	         -3.05749755	         -7.20646978	          7.92815035	         -3.50289628	          2.89809058	         11.72147284	         16.39702106	         -1.33047025	         -0.63847230	          2.36583852	         -7.33398943	        -13.45264572	          7.13793801	          4.47049333	        -13.47084477	         17.09532391	         15.43900911	         37.33590807	         86.51662706	         86.51662706	          0.24039638	          0.24244703	          0.27299336	          0.36396209	          0.25305106	          0.19049784	          0.15652941	          0.07533756	          0.10442515	          0.08750880	          0.05969059	          0.11024490	          0.26651873	          0.25695323	          0.16664469	          0.13135068	          0.05000082	          0.06861467	          0.13142183	          0.05000385	          0.13337130	          0.12300155	          0.05699913	          0.05005007	          0.45265046	          0.19107117	          0.19723806	          0.05000017	          0.05394173	          0.05244611	          0.05000626	          0.05969181	          0.05969217	          0.05164348	          0.05000015	          0.05000211	          0.05117951	          0.60722564	          0.40938416	          0.21124188	          0.41489434	          0.38569095	          0.08172524	          0.05641091	          0.13253668	          0.07126294	          0.31728387	          0.07129550	          0.05205069	          0.26788027	          0.13506808	          0.08325119	          0.05000317	          0.05000042	          0.05000033	          0.05000100	          0.08044859	          0.12157917	          0.05000327	          0.05000127	          0.05000144	          0.05000227	          0.30404333	          0.08507398	          0.05000785	          0.05000274	          0.05000149	          0.05000107	          0.30775869	          0.60712466	          0.05000033	          0.05000131	          0.05000097	          0.26978407	          0.09993685	          0.10162527	          0.07204613	          0.19673954	          0.27397360	          0.26218209	          0.21378349	          0.36053762	          0.44631050	          0.05000004	          0.13214837	          0.16794335	          0.05000016	          0.05000006	          0.05000024	          0.05085549	          0.05969202	          0.05581228	
          0.61641371	         -2.91792337	          2.47513056	         -6.49951490	          0.78039771	          0.91551428	          0.00234486	         26.70181145	          4.20095232	         -2.58023491	        -15.99417268	         -1.70567227	          5.68839991	         -9.67187434	        -14.52610626	          4.29163301	         -3.99259911	         -7.52135354	          8.79108037	         -3.43616277	          1.79044109	         11.85841006	         18.41232932	         -1.09185440	         -0.84677196	          2.41876075	         -8.32093861	        -13.45375627	          7.07128461	          4.03810543	        -13.48295894	         17.27117601	         15.18400951	         38.58922648	         86.51662706	         86.51662706	          0.33440212	          0.34569744	          0.36522049	          0.30486716	          0.21816465	          0.23099675	          0.13111443	          0.07873101	          0.08811163	          0.07330040	          0.05000094	          0.09234480	          0.22324491	          0.21523295	          0.15608959	          0.16817105	          0.05000072	          0.05747485	          0.11008448	          0.21265897	          0.19364816	          0.17413623	          0.05000016	          0.05000016	          0.37915487	          0.16004758	          0.16521518	          0.05000019	          0.06523823	          0.07236852	          0.05572484	          0.05000007	          0.05000024	          0.05000002	          0.05000020	          0.05344456	          0.05001019	          0.70722652	          0.41251450	          0.22559102	          0.55448599	          0.40035708	          0.09839032	          0.07867909	          0.11101709	          0.05969219	          0.26689872	          0.05971951	          0.05000056	          0.22438596	          0.11313758	          0.06973405	          0.05000843	          0.05000062	          0.05000056	          0.05000034	          0.06738672	          0.15666225	          0.10955294	          0.05180035	          0.05004811	          0.05000761	          0.28642062	          0.07126385	          0.05000769	          0.05001246	          0.05000817	          0.05000816	          0.25778881	          0.55683768	          0.05000245	          0.05000417	          0.05000058	          0.22686122	          0.08371244	          0.08512705	          0.12125349	          0.16479546	          0.22948924	          0.21961228	          0.17907208	          0.31170977	          0.38924805	          0.07764938	          0.13782862	          0.17375965	          0.05523131	          0.05000007	          0.05000019	          0.06089188	          0.05000006	          0.05000006	
